<svg xmlns="http://www.w3.org/2000/svg" width="540" height="358" viewBox="0 0 540 358" font-family="'Styrene B', 'Inter', -apple-system, BlinkMacSystemFont, 'Segoe UI', Helvetica, Arial, sans-serif">
<style>
.title{fill:#181818;font-size:18px;font-weight:400;font-family:'Tiempos Headline', 'Source Serif Pro', Georgia, 'Times New Roman', serif;letter-spacing:-0.3px}
.subtitle{fill:#5A574E;font-size:11px}
.day-label{fill:#181818;font-size:12px;font-weight:600}
.count{fill:#5A574E;font-size:11px}
.pct{fill:#CC785C;font-size:11px;font-weight:700;font-family:'Tiempos Headline', 'Source Serif Pro', Georgia, 'Times New Roman', serif}
.foot{fill:#A19E92;font-size:10px}
.bar-bg{fill:#EEE9DC}
.b0{fill:#EEE9DC}.b1{fill:#F0D5B4}.b2{fill:#E5B388}.b3{fill:#CC785C}.b4{fill:#A85A3F}
@media (prefers-color-scheme: dark){
.title{fill:#F0EEE6}.subtitle{fill:#A19E92}.day-label{fill:#F0EEE6}
.count{fill:#A19E92}.pct{fill:#E5947A}.foot{fill:#A19E92}.bar-bg{fill:#33312B}
.b0{fill:#33312B}.b1{fill:#3D2E22}.b2{fill:#7A4A33}.b3{fill:#CC785C}.b4{fill:#E5947A}}
</style>
<text x="32" y="48" class="title">when i actually lock in · EST</text>
<text x="32" y="68" class="subtitle">156 W's in 2026 · every contribution counted (private org repos too, no cap)</text>
<text x="66" y="107" class="day-label" text-anchor="end">Mon</text>
<rect x="74" y="96" width="338" height="14" rx="3" class="bar-bg"/>
<rect x="74" y="96" width="48.285714285714285" height="14" rx="3" class="b1"><title>Monday: 8 contributions (5.1%)</title></rect>
<text x="468" y="107" class="count" text-anchor="end">8</text>
<text x="508" y="107" class="pct" text-anchor="end">5.1%</text>
<text x="66" y="137" class="day-label" text-anchor="end">Tue</text>
<rect x="74" y="126" width="338" height="14" rx="3" class="bar-bg"/>
<rect x="74" y="126" width="30.17857142857143" height="14" rx="3" class="b1"><title>Tuesday: 5 contributions (3.2%)</title></rect>
<text x="468" y="137" class="count" text-anchor="end">5</text>
<text x="508" y="137" class="pct" text-anchor="end">3.2%</text>
<text x="66" y="167" class="day-label" text-anchor="end">Wed</text>
<rect x="74" y="156" width="338" height="14" rx="3" class="bar-bg"/>
<rect x="74" y="156" width="90.53571428571428" height="14" rx="3" class="b2"><title>Wednesday: 15 contributions (9.6%)</title></rect>
<text x="468" y="167" class="count" text-anchor="end">15</text>
<text x="508" y="167" class="pct" text-anchor="end">9.6%</text>
<text x="66" y="197" class="day-label" text-anchor="end">Thu</text>
<rect x="74" y="186" width="338" height="14" rx="3" class="bar-bg"/>
<rect x="74" y="186" width="205.2142857142857" height="14" rx="3" class="b3"><title>Thursday: 34 contributions (21.8%)</title></rect>
<text x="468" y="197" class="count" text-anchor="end">34</text>
<text x="508" y="197" class="pct" text-anchor="end">21.8%</text>
<text x="66" y="227" class="day-label" text-anchor="end">Fri</text>
<rect x="74" y="216" width="338" height="14" rx="3" class="bar-bg"/>
<rect x="74" y="216" width="6.035714285714286" height="14" rx="3" class="b1"><title>Friday: 1 contribution (0.6%)</title></rect>
<text x="468" y="227" class="count" text-anchor="end">1</text>
<text x="508" y="227" class="pct" text-anchor="end">0.6%</text>
<text x="66" y="257" class="day-label" text-anchor="end">Sat</text>
<rect x="74" y="246" width="338" height="14" rx="3" class="bar-bg"/>
<rect x="74" y="246" width="223.32142857142856" height="14" rx="3" class="b3"><title>Saturday: 37 contributions (23.7%)</title></rect>
<text x="468" y="257" class="count" text-anchor="end">37</text>
<text x="508" y="257" class="pct" text-anchor="end">23.7%</text>
<text x="66" y="287" class="day-label" text-anchor="end">Sun</text>
<rect x="74" y="276" width="338" height="14" rx="3" class="bar-bg"/>
<rect x="74" y="276" width="338" height="14" rx="3" class="b4"><title>Sunday: 56 contributions (35.9%)</title></rect>
<text x="468" y="287" class="count" text-anchor="end">56</text>
<text x="508" y="287" class="pct" text-anchor="end">35.9%</text>
<text x="32" y="314" class="foot">peak grind day: <tspan class="pct">Sunday</tspan> · 35.9% of the chaos</text>
</svg>