<svg xmlns="http://www.w3.org/2000/svg" width="540" height="338" viewBox="0 0 540 338" font-family="-apple-system, BlinkMacSystemFont, 'Segoe UI', Helvetica, Arial, sans-serif">
<style>
.title{fill:#1f2328;font-size:16px;font-weight:600}
.subtitle{fill:#656d76;font-size:11px}
.day-label{fill:#1f2328;font-size:12px;font-weight:600}
.count{fill:#656d76;font-size:11px}
.pct{fill:#1a7f37;font-size:11px;font-weight:600}
.foot{fill:#8b949e;font-size:10px}
.bar-bg{fill:#ebedf0}
.b0{fill:#ebedf0}.b1{fill:#9be9a8}.b2{fill:#40c463}.b3{fill:#30a14e}.b4{fill:#216e39}
@media (prefers-color-scheme: dark){
.title{fill:#e6edf3}.subtitle{fill:#8b949e}.day-label{fill:#e6edf3}
.count{fill:#8b949e}.pct{fill:#39d353}.foot{fill:#6e7681}.bar-bg{fill:#21262d}
.b0{fill:#21262d}.b1{fill:#0e4429}.b2{fill:#006d32}.b3{fill:#26a641}.b4{fill:#39d353}}
</style>
<text x="24" y="38" class="title">📅 when i actually lock in · EST</text>
<text x="24" y="56" class="subtitle">144 W's in 2026 · every contribution counted (private org repos too, no cap)</text>
<text x="58" y="95" class="day-label" text-anchor="end">Mon</text>
<rect x="66" y="84" width="354" height="14" rx="3" class="bar-bg"/>
<rect x="66" y="84" width="64.36363636363636" height="14" rx="3" class="b1"><title>Monday: 8 contributions (5.6%)</title></rect>
<text x="476" y="95" class="count" text-anchor="end">8</text>
<text x="516" y="95" class="pct" text-anchor="end">5.6%</text>
<text x="58" y="125" class="day-label" text-anchor="end">Tue</text>
<rect x="66" y="114" width="354" height="14" rx="3" class="bar-bg"/>
<rect x="66" y="114" width="40.22727272727273" height="14" rx="3" class="b1"><title>Tuesday: 5 contributions (3.5%)</title></rect>
<text x="476" y="125" class="count" text-anchor="end">5</text>
<text x="516" y="125" class="pct" text-anchor="end">3.5%</text>
<text x="58" y="155" class="day-label" text-anchor="end">Wed</text>
<rect x="66" y="144" width="354" height="14" rx="3" class="bar-bg"/>
<rect x="66" y="144" width="120.68181818181817" height="14" rx="3" class="b2"><title>Wednesday: 15 contributions (10.4%)</title></rect>
<text x="476" y="155" class="count" text-anchor="end">15</text>
<text x="516" y="155" class="pct" text-anchor="end">10.4%</text>
<text x="58" y="185" class="day-label" text-anchor="end">Thu</text>
<rect x="66" y="174" width="354" height="14" rx="3" class="bar-bg"/>
<rect x="66" y="174" width="273.54545454545456" height="14" rx="3" class="b4"><title>Thursday: 34 contributions (23.6%)</title></rect>
<text x="476" y="185" class="count" text-anchor="end">34</text>
<text x="516" y="185" class="pct" text-anchor="end">23.6%</text>
<text x="58" y="215" class="day-label" text-anchor="end">Fri</text>
<rect x="66" y="204" width="354" height="14" rx="3" class="bar-bg"/>
<rect x="66" y="204" width="8.045454545454545" height="14" rx="3" class="b1"><title>Friday: 1 contribution (0.7%)</title></rect>
<text x="476" y="215" class="count" text-anchor="end">1</text>
<text x="516" y="215" class="pct" text-anchor="end">0.7%</text>
<text x="58" y="245" class="day-label" text-anchor="end">Sat</text>
<rect x="66" y="234" width="354" height="14" rx="3" class="bar-bg"/>
<rect x="66" y="234" width="297.6818181818182" height="14" rx="3" class="b4"><title>Saturday: 37 contributions (25.7%)</title></rect>
<text x="476" y="245" class="count" text-anchor="end">37</text>
<text x="516" y="245" class="pct" text-anchor="end">25.7%</text>
<text x="58" y="275" class="day-label" text-anchor="end">Sun</text>
<rect x="66" y="264" width="354" height="14" rx="3" class="bar-bg"/>
<rect x="66" y="264" width="354" height="14" rx="3" class="b4"><title>Sunday: 44 contributions (30.6%)</title></rect>
<text x="476" y="275" class="count" text-anchor="end">44</text>
<text x="516" y="275" class="pct" text-anchor="end">30.6%</text>
<text x="24" y="302" class="foot">📈 peak grind day: <tspan class="pct">Sunday</tspan> · 30.6% of the chaos</text>
</svg>