<svg xmlns="http://www.w3.org/2000/svg" width="900" height="504" viewBox="0 0 900 504" font-family="'Styrene B', 'Inter', -apple-system, BlinkMacSystemFont, 'Segoe UI', Helvetica, Arial, sans-serif">
<style>
.title{fill:#181818;font-size:26px;font-weight:400;font-family:'Tiempos Headline', 'Source Serif Pro', Georgia, 'Times New Roman', serif;letter-spacing:-0.4px}
.subtitle{fill:#5A574E;font-size:14px}
.day-label{fill:#5A574E;font-size:15px;font-weight:600}
.day-label-peak{fill:#CC785C;font-size:15px;font-weight:700}
.count{fill:#5A574E;font-size:14px}
.pct{fill:#181818;font-size:14px;font-weight:700;font-family:'Tiempos Headline', 'Source Serif Pro', Georgia, 'Times New Roman', serif}
.pct-peak{fill:#CC785C;font-size:14px;font-weight:700;font-family:'Tiempos Headline', 'Source Serif Pro', Georgia, 'Times New Roman', serif}
.foot{fill:#5A574E;font-size:13px}
.foot-accent{fill:#CC785C;font-size:14px;font-weight:700;font-family:'Tiempos Headline', 'Source Serif Pro', Georgia, 'Times New Roman', serif}
.bar-bg{fill:#EEE9DC}
.avg-line{stroke:#A19E92;stroke-width:1.2;stroke-dasharray:3 3}
.peak-ring{fill:none;stroke:#CC785C;stroke-width:1.6}
.b0{fill:#EEE9DC}.b1{fill:#F0D5B4}.b2{fill:#E5B388}.b3{fill:#CC785C}.b4{fill:#A85A3F}
@media (prefers-color-scheme: dark){
.title{fill:#F0EEE6}.subtitle{fill:#A19E92}.day-label{fill:#A19E92}.day-label-peak{fill:#E5947A}
.count{fill:#A19E92}.pct{fill:#F0EEE6}.pct-peak{fill:#E5947A}
.foot{fill:#A19E92}.foot-accent{fill:#E5947A}.bar-bg{fill:#33312B}
.avg-line{stroke:#5A574E}.peak-ring{stroke:#E5947A}
.b0{fill:#33312B}.b1{fill:#3D2E22}.b2{fill:#7A4A33}.b3{fill:#CC785C}.b4{fill:#E5947A}}
</style>
<text x="40" y="62" class="title">when i actually lock in · EST</text>
<text x="40" y="88" class="subtitle">172 W's in 2026 · all contributions counted (private org repos too, no cap)</text>
<line x1="372.04081632653066" y1="114" x2="372.04081632653066" y2="432" class="avg-line"><title>even distribution = 14.3% per day</title></line>
<text x="90" y="148" class="day-label" text-anchor="end">Mon</text>
<rect x="100" y="126" width="620" height="24" rx="4" class="bar-bg"/>
<rect x="100" y="126" width="265.7142857142857" height="24" rx="4" class="b2"><title>Monday: 24 contributions (14.0%)</title></rect>
<text x="802" y="148" class="count" text-anchor="end">24</text>
<text x="860" y="148" class="pct" text-anchor="end">14.0%</text>
<text x="90" y="192" class="day-label" text-anchor="end">Tue</text>
<rect x="100" y="170" width="620" height="24" rx="4" class="bar-bg"/>
<rect x="100" y="170" width="55.35714285714286" height="24" rx="4" class="b1"><title>Tuesday: 5 contributions (2.9%)</title></rect>
<text x="802" y="192" class="count" text-anchor="end">5</text>
<text x="860" y="192" class="pct" text-anchor="end">2.9%</text>
<text x="90" y="236" class="day-label" text-anchor="end">Wed</text>
<rect x="100" y="214" width="620" height="24" rx="4" class="bar-bg"/>
<rect x="100" y="214" width="166.07142857142856" height="24" rx="4" class="b2"><title>Wednesday: 15 contributions (8.7%)</title></rect>
<text x="802" y="236" class="count" text-anchor="end">15</text>
<text x="860" y="236" class="pct" text-anchor="end">8.7%</text>
<text x="90" y="280" class="day-label" text-anchor="end">Thu</text>
<rect x="100" y="258" width="620" height="24" rx="4" class="bar-bg"/>
<rect x="100" y="258" width="376.4285714285714" height="24" rx="4" class="b3"><title>Thursday: 34 contributions (19.8%)</title></rect>
<text x="802" y="280" class="count" text-anchor="end">34</text>
<text x="860" y="280" class="pct" text-anchor="end">19.8%</text>
<text x="90" y="324" class="day-label" text-anchor="end">Fri</text>
<rect x="100" y="302" width="620" height="24" rx="4" class="bar-bg"/>
<rect x="100" y="302" width="11.071428571428571" height="24" rx="4" class="b1"><title>Friday: 1 contribution (0.6%)</title></rect>
<text x="802" y="324" class="count" text-anchor="end">1</text>
<text x="860" y="324" class="pct" text-anchor="end">0.6%</text>
<text x="90" y="368" class="day-label" text-anchor="end">Sat</text>
<rect x="100" y="346" width="620" height="24" rx="4" class="bar-bg"/>
<rect x="100" y="346" width="409.6428571428571" height="24" rx="4" class="b3"><title>Saturday: 37 contributions (21.5%)</title></rect>
<text x="802" y="368" class="count" text-anchor="end">37</text>
<text x="860" y="368" class="pct" text-anchor="end">21.5%</text>
<text x="90" y="412" class="day-label-peak" text-anchor="end">Sun</text>
<rect x="100" y="390" width="620" height="24" rx="4" class="bar-bg"/>
<rect x="100" y="390" width="620" height="24" rx="4" class="b4"><title>Sunday: 56 contributions (32.6%)</title></rect>
<text x="802" y="412" class="count" text-anchor="end">56</text>
<text x="860" y="412" class="pct-peak" text-anchor="end">32.6%</text>
<rect x="98" y="388" width="624" height="28" rx="5" class="peak-ring"/>
<text x="40" y="452" class="foot">peak grind day: <tspan class="foot-accent">Sunday</tspan> · 32.6% of the chaos · dashed line = even split</text>
</svg>