<svg xmlns="http://www.w3.org/2000/svg" width="581" height="290" viewBox="0 0 581 290" font-family="-apple-system, BlinkMacSystemFont, 'Segoe UI', Helvetica, Arial, sans-serif">
<style>
.title{fill:#1f2328;font-size:16px;font-weight:600}
.subtitle{fill:#656d76;font-size:11px}
.axis{fill:#8b949e;font-size:9px}
.day-label{fill:#656d76;font-size:11px;font-weight:600}
.foot{fill:#8b949e;font-size:10px}
.h0{fill:#ebedf0}.h1{fill:#9be9a8}.h2{fill:#40c463}.h3{fill:#30a14e}.h4{fill:#216e39}
@media (prefers-color-scheme: dark){
.title{fill:#e6edf3}.subtitle{fill:#8b949e}.axis{fill:#6e7681}.day-label{fill:#8b949e}.foot{fill:#6e7681}
.h0{fill:#161b22}.h1{fill:#0e4429}.h2{fill:#006d32}.h3{fill:#26a641}.h4{fill:#39d353}}
</style>
<text x="24" y="38" class="title">⏰ When I commit · weekday × hour (EST)</text>
<text x="24" y="56" class="subtitle">0 commits bucketed by day-of-week and hour-of-day in Eastern Time</text>
<text x="65" y="92" class="axis" text-anchor="middle">0</text>
<text x="128" y="92" class="axis" text-anchor="middle">3</text>
<text x="191" y="92" class="axis" text-anchor="middle">6</text>
<text x="254" y="92" class="axis" text-anchor="middle">9</text>
<text x="317" y="92" class="axis" text-anchor="middle">12</text>
<text x="380" y="92" class="axis" text-anchor="middle">15</text>
<text x="443" y="92" class="axis" text-anchor="middle">18</text>
<text x="506" y="92" class="axis" text-anchor="middle">21</text>
<text x="548" y="92" class="axis" text-anchor="middle">23</text>
<text x="48" y="109" class="day-label" text-anchor="end">Mon</text>
<rect x="56" y="96" width="18" height="18" rx="2" class="h0"><title>Mon 0:00 — 0 commits</title></rect>
<rect x="77" y="96" width="18" height="18" rx="2" class="h0"><title>Mon 1:00 — 0 commits</title></rect>
<rect x="98" y="96" width="18" height="18" rx="2" class="h0"><title>Mon 2:00 — 0 commits</title></rect>
<rect x="119" y="96" width="18" height="18" rx="2" class="h0"><title>Mon 3:00 — 0 commits</title></rect>
<rect x="140" y="96" width="18" height="18" rx="2" class="h0"><title>Mon 4:00 — 0 commits</title></rect>
<rect x="161" y="96" width="18" height="18" rx="2" class="h0"><title>Mon 5:00 — 0 commits</title></rect>
<rect x="182" y="96" width="18" height="18" rx="2" class="h0"><title>Mon 6:00 — 0 commits</title></rect>
<rect x="203" y="96" width="18" height="18" rx="2" class="h0"><title>Mon 7:00 — 0 commits</title></rect>
<rect x="224" y="96" width="18" height="18" rx="2" class="h0"><title>Mon 8:00 — 0 commits</title></rect>
<rect x="245" y="96" width="18" height="18" rx="2" class="h0"><title>Mon 9:00 — 0 commits</title></rect>
<rect x="266" y="96" width="18" height="18" rx="2" class="h0"><title>Mon 10:00 — 0 commits</title></rect>
<rect x="287" y="96" width="18" height="18" rx="2" class="h0"><title>Mon 11:00 — 0 commits</title></rect>
<rect x="308" y="96" width="18" height="18" rx="2" class="h0"><title>Mon 12:00 — 0 commits</title></rect>
<rect x="329" y="96" width="18" height="18" rx="2" class="h0"><title>Mon 13:00 — 0 commits</title></rect>
<rect x="350" y="96" width="18" height="18" rx="2" class="h0"><title>Mon 14:00 — 0 commits</title></rect>
<rect x="371" y="96" width="18" height="18" rx="2" class="h0"><title>Mon 15:00 — 0 commits</title></rect>
<rect x="392" y="96" width="18" height="18" rx="2" class="h0"><title>Mon 16:00 — 0 commits</title></rect>
<rect x="413" y="96" width="18" height="18" rx="2" class="h0"><title>Mon 17:00 — 0 commits</title></rect>
<rect x="434" y="96" width="18" height="18" rx="2" class="h0"><title>Mon 18:00 — 0 commits</title></rect>
<rect x="455" y="96" width="18" height="18" rx="2" class="h0"><title>Mon 19:00 — 0 commits</title></rect>
<rect x="476" y="96" width="18" height="18" rx="2" class="h0"><title>Mon 20:00 — 0 commits</title></rect>
<rect x="497" y="96" width="18" height="18" rx="2" class="h0"><title>Mon 21:00 — 0 commits</title></rect>
<rect x="518" y="96" width="18" height="18" rx="2" class="h0"><title>Mon 22:00 — 0 commits</title></rect>
<rect x="539" y="96" width="18" height="18" rx="2" class="h0"><title>Mon 23:00 — 0 commits</title></rect>
<text x="48" y="130" class="day-label" text-anchor="end">Tue</text>
<rect x="56" y="117" width="18" height="18" rx="2" class="h0"><title>Tue 0:00 — 0 commits</title></rect>
<rect x="77" y="117" width="18" height="18" rx="2" class="h0"><title>Tue 1:00 — 0 commits</title></rect>
<rect x="98" y="117" width="18" height="18" rx="2" class="h0"><title>Tue 2:00 — 0 commits</title></rect>
<rect x="119" y="117" width="18" height="18" rx="2" class="h0"><title>Tue 3:00 — 0 commits</title></rect>
<rect x="140" y="117" width="18" height="18" rx="2" class="h0"><title>Tue 4:00 — 0 commits</title></rect>
<rect x="161" y="117" width="18" height="18" rx="2" class="h0"><title>Tue 5:00 — 0 commits</title></rect>
<rect x="182" y="117" width="18" height="18" rx="2" class="h0"><title>Tue 6:00 — 0 commits</title></rect>
<rect x="203" y="117" width="18" height="18" rx="2" class="h0"><title>Tue 7:00 — 0 commits</title></rect>
<rect x="224" y="117" width="18" height="18" rx="2" class="h0"><title>Tue 8:00 — 0 commits</title></rect>
<rect x="245" y="117" width="18" height="18" rx="2" class="h0"><title>Tue 9:00 — 0 commits</title></rect>
<rect x="266" y="117" width="18" height="18" rx="2" class="h0"><title>Tue 10:00 — 0 commits</title></rect>
<rect x="287" y="117" width="18" height="18" rx="2" class="h0"><title>Tue 11:00 — 0 commits</title></rect>
<rect x="308" y="117" width="18" height="18" rx="2" class="h0"><title>Tue 12:00 — 0 commits</title></rect>
<rect x="329" y="117" width="18" height="18" rx="2" class="h0"><title>Tue 13:00 — 0 commits</title></rect>
<rect x="350" y="117" width="18" height="18" rx="2" class="h0"><title>Tue 14:00 — 0 commits</title></rect>
<rect x="371" y="117" width="18" height="18" rx="2" class="h0"><title>Tue 15:00 — 0 commits</title></rect>
<rect x="392" y="117" width="18" height="18" rx="2" class="h0"><title>Tue 16:00 — 0 commits</title></rect>
<rect x="413" y="117" width="18" height="18" rx="2" class="h0"><title>Tue 17:00 — 0 commits</title></rect>
<rect x="434" y="117" width="18" height="18" rx="2" class="h0"><title>Tue 18:00 — 0 commits</title></rect>
<rect x="455" y="117" width="18" height="18" rx="2" class="h0"><title>Tue 19:00 — 0 commits</title></rect>
<rect x="476" y="117" width="18" height="18" rx="2" class="h0"><title>Tue 20:00 — 0 commits</title></rect>
<rect x="497" y="117" width="18" height="18" rx="2" class="h0"><title>Tue 21:00 — 0 commits</title></rect>
<rect x="518" y="117" width="18" height="18" rx="2" class="h0"><title>Tue 22:00 — 0 commits</title></rect>
<rect x="539" y="117" width="18" height="18" rx="2" class="h0"><title>Tue 23:00 — 0 commits</title></rect>
<text x="48" y="151" class="day-label" text-anchor="end">Wed</text>
<rect x="56" y="138" width="18" height="18" rx="2" class="h0"><title>Wed 0:00 — 0 commits</title></rect>
<rect x="77" y="138" width="18" height="18" rx="2" class="h0"><title>Wed 1:00 — 0 commits</title></rect>
<rect x="98" y="138" width="18" height="18" rx="2" class="h0"><title>Wed 2:00 — 0 commits</title></rect>
<rect x="119" y="138" width="18" height="18" rx="2" class="h0"><title>Wed 3:00 — 0 commits</title></rect>
<rect x="140" y="138" width="18" height="18" rx="2" class="h0"><title>Wed 4:00 — 0 commits</title></rect>
<rect x="161" y="138" width="18" height="18" rx="2" class="h0"><title>Wed 5:00 — 0 commits</title></rect>
<rect x="182" y="138" width="18" height="18" rx="2" class="h0"><title>Wed 6:00 — 0 commits</title></rect>
<rect x="203" y="138" width="18" height="18" rx="2" class="h0"><title>Wed 7:00 — 0 commits</title></rect>
<rect x="224" y="138" width="18" height="18" rx="2" class="h0"><title>Wed 8:00 — 0 commits</title></rect>
<rect x="245" y="138" width="18" height="18" rx="2" class="h0"><title>Wed 9:00 — 0 commits</title></rect>
<rect x="266" y="138" width="18" height="18" rx="2" class="h0"><title>Wed 10:00 — 0 commits</title></rect>
<rect x="287" y="138" width="18" height="18" rx="2" class="h0"><title>Wed 11:00 — 0 commits</title></rect>
<rect x="308" y="138" width="18" height="18" rx="2" class="h0"><title>Wed 12:00 — 0 commits</title></rect>
<rect x="329" y="138" width="18" height="18" rx="2" class="h0"><title>Wed 13:00 — 0 commits</title></rect>
<rect x="350" y="138" width="18" height="18" rx="2" class="h0"><title>Wed 14:00 — 0 commits</title></rect>
<rect x="371" y="138" width="18" height="18" rx="2" class="h0"><title>Wed 15:00 — 0 commits</title></rect>
<rect x="392" y="138" width="18" height="18" rx="2" class="h0"><title>Wed 16:00 — 0 commits</title></rect>
<rect x="413" y="138" width="18" height="18" rx="2" class="h0"><title>Wed 17:00 — 0 commits</title></rect>
<rect x="434" y="138" width="18" height="18" rx="2" class="h0"><title>Wed 18:00 — 0 commits</title></rect>
<rect x="455" y="138" width="18" height="18" rx="2" class="h0"><title>Wed 19:00 — 0 commits</title></rect>
<rect x="476" y="138" width="18" height="18" rx="2" class="h0"><title>Wed 20:00 — 0 commits</title></rect>
<rect x="497" y="138" width="18" height="18" rx="2" class="h0"><title>Wed 21:00 — 0 commits</title></rect>
<rect x="518" y="138" width="18" height="18" rx="2" class="h0"><title>Wed 22:00 — 0 commits</title></rect>
<rect x="539" y="138" width="18" height="18" rx="2" class="h0"><title>Wed 23:00 — 0 commits</title></rect>
<text x="48" y="172" class="day-label" text-anchor="end">Thu</text>
<rect x="56" y="159" width="18" height="18" rx="2" class="h0"><title>Thu 0:00 — 0 commits</title></rect>
<rect x="77" y="159" width="18" height="18" rx="2" class="h0"><title>Thu 1:00 — 0 commits</title></rect>
<rect x="98" y="159" width="18" height="18" rx="2" class="h0"><title>Thu 2:00 — 0 commits</title></rect>
<rect x="119" y="159" width="18" height="18" rx="2" class="h0"><title>Thu 3:00 — 0 commits</title></rect>
<rect x="140" y="159" width="18" height="18" rx="2" class="h0"><title>Thu 4:00 — 0 commits</title></rect>
<rect x="161" y="159" width="18" height="18" rx="2" class="h0"><title>Thu 5:00 — 0 commits</title></rect>
<rect x="182" y="159" width="18" height="18" rx="2" class="h0"><title>Thu 6:00 — 0 commits</title></rect>
<rect x="203" y="159" width="18" height="18" rx="2" class="h0"><title>Thu 7:00 — 0 commits</title></rect>
<rect x="224" y="159" width="18" height="18" rx="2" class="h0"><title>Thu 8:00 — 0 commits</title></rect>
<rect x="245" y="159" width="18" height="18" rx="2" class="h0"><title>Thu 9:00 — 0 commits</title></rect>
<rect x="266" y="159" width="18" height="18" rx="2" class="h0"><title>Thu 10:00 — 0 commits</title></rect>
<rect x="287" y="159" width="18" height="18" rx="2" class="h0"><title>Thu 11:00 — 0 commits</title></rect>
<rect x="308" y="159" width="18" height="18" rx="2" class="h0"><title>Thu 12:00 — 0 commits</title></rect>
<rect x="329" y="159" width="18" height="18" rx="2" class="h0"><title>Thu 13:00 — 0 commits</title></rect>
<rect x="350" y="159" width="18" height="18" rx="2" class="h0"><title>Thu 14:00 — 0 commits</title></rect>
<rect x="371" y="159" width="18" height="18" rx="2" class="h0"><title>Thu 15:00 — 0 commits</title></rect>
<rect x="392" y="159" width="18" height="18" rx="2" class="h0"><title>Thu 16:00 — 0 commits</title></rect>
<rect x="413" y="159" width="18" height="18" rx="2" class="h0"><title>Thu 17:00 — 0 commits</title></rect>
<rect x="434" y="159" width="18" height="18" rx="2" class="h0"><title>Thu 18:00 — 0 commits</title></rect>
<rect x="455" y="159" width="18" height="18" rx="2" class="h0"><title>Thu 19:00 — 0 commits</title></rect>
<rect x="476" y="159" width="18" height="18" rx="2" class="h0"><title>Thu 20:00 — 0 commits</title></rect>
<rect x="497" y="159" width="18" height="18" rx="2" class="h0"><title>Thu 21:00 — 0 commits</title></rect>
<rect x="518" y="159" width="18" height="18" rx="2" class="h0"><title>Thu 22:00 — 0 commits</title></rect>
<rect x="539" y="159" width="18" height="18" rx="2" class="h0"><title>Thu 23:00 — 0 commits</title></rect>
<text x="48" y="193" class="day-label" text-anchor="end">Fri</text>
<rect x="56" y="180" width="18" height="18" rx="2" class="h0"><title>Fri 0:00 — 0 commits</title></rect>
<rect x="77" y="180" width="18" height="18" rx="2" class="h0"><title>Fri 1:00 — 0 commits</title></rect>
<rect x="98" y="180" width="18" height="18" rx="2" class="h0"><title>Fri 2:00 — 0 commits</title></rect>
<rect x="119" y="180" width="18" height="18" rx="2" class="h0"><title>Fri 3:00 — 0 commits</title></rect>
<rect x="140" y="180" width="18" height="18" rx="2" class="h0"><title>Fri 4:00 — 0 commits</title></rect>
<rect x="161" y="180" width="18" height="18" rx="2" class="h0"><title>Fri 5:00 — 0 commits</title></rect>
<rect x="182" y="180" width="18" height="18" rx="2" class="h0"><title>Fri 6:00 — 0 commits</title></rect>
<rect x="203" y="180" width="18" height="18" rx="2" class="h0"><title>Fri 7:00 — 0 commits</title></rect>
<rect x="224" y="180" width="18" height="18" rx="2" class="h0"><title>Fri 8:00 — 0 commits</title></rect>
<rect x="245" y="180" width="18" height="18" rx="2" class="h0"><title>Fri 9:00 — 0 commits</title></rect>
<rect x="266" y="180" width="18" height="18" rx="2" class="h0"><title>Fri 10:00 — 0 commits</title></rect>
<rect x="287" y="180" width="18" height="18" rx="2" class="h0"><title>Fri 11:00 — 0 commits</title></rect>
<rect x="308" y="180" width="18" height="18" rx="2" class="h0"><title>Fri 12:00 — 0 commits</title></rect>
<rect x="329" y="180" width="18" height="18" rx="2" class="h0"><title>Fri 13:00 — 0 commits</title></rect>
<rect x="350" y="180" width="18" height="18" rx="2" class="h0"><title>Fri 14:00 — 0 commits</title></rect>
<rect x="371" y="180" width="18" height="18" rx="2" class="h0"><title>Fri 15:00 — 0 commits</title></rect>
<rect x="392" y="180" width="18" height="18" rx="2" class="h0"><title>Fri 16:00 — 0 commits</title></rect>
<rect x="413" y="180" width="18" height="18" rx="2" class="h0"><title>Fri 17:00 — 0 commits</title></rect>
<rect x="434" y="180" width="18" height="18" rx="2" class="h0"><title>Fri 18:00 — 0 commits</title></rect>
<rect x="455" y="180" width="18" height="18" rx="2" class="h0"><title>Fri 19:00 — 0 commits</title></rect>
<rect x="476" y="180" width="18" height="18" rx="2" class="h0"><title>Fri 20:00 — 0 commits</title></rect>
<rect x="497" y="180" width="18" height="18" rx="2" class="h0"><title>Fri 21:00 — 0 commits</title></rect>
<rect x="518" y="180" width="18" height="18" rx="2" class="h0"><title>Fri 22:00 — 0 commits</title></rect>
<rect x="539" y="180" width="18" height="18" rx="2" class="h0"><title>Fri 23:00 — 0 commits</title></rect>
<text x="48" y="214" class="day-label" text-anchor="end">Sat</text>
<rect x="56" y="201" width="18" height="18" rx="2" class="h0"><title>Sat 0:00 — 0 commits</title></rect>
<rect x="77" y="201" width="18" height="18" rx="2" class="h0"><title>Sat 1:00 — 0 commits</title></rect>
<rect x="98" y="201" width="18" height="18" rx="2" class="h0"><title>Sat 2:00 — 0 commits</title></rect>
<rect x="119" y="201" width="18" height="18" rx="2" class="h0"><title>Sat 3:00 — 0 commits</title></rect>
<rect x="140" y="201" width="18" height="18" rx="2" class="h0"><title>Sat 4:00 — 0 commits</title></rect>
<rect x="161" y="201" width="18" height="18" rx="2" class="h0"><title>Sat 5:00 — 0 commits</title></rect>
<rect x="182" y="201" width="18" height="18" rx="2" class="h0"><title>Sat 6:00 — 0 commits</title></rect>
<rect x="203" y="201" width="18" height="18" rx="2" class="h0"><title>Sat 7:00 — 0 commits</title></rect>
<rect x="224" y="201" width="18" height="18" rx="2" class="h0"><title>Sat 8:00 — 0 commits</title></rect>
<rect x="245" y="201" width="18" height="18" rx="2" class="h0"><title>Sat 9:00 — 0 commits</title></rect>
<rect x="266" y="201" width="18" height="18" rx="2" class="h0"><title>Sat 10:00 — 0 commits</title></rect>
<rect x="287" y="201" width="18" height="18" rx="2" class="h0"><title>Sat 11:00 — 0 commits</title></rect>
<rect x="308" y="201" width="18" height="18" rx="2" class="h0"><title>Sat 12:00 — 0 commits</title></rect>
<rect x="329" y="201" width="18" height="18" rx="2" class="h0"><title>Sat 13:00 — 0 commits</title></rect>
<rect x="350" y="201" width="18" height="18" rx="2" class="h0"><title>Sat 14:00 — 0 commits</title></rect>
<rect x="371" y="201" width="18" height="18" rx="2" class="h0"><title>Sat 15:00 — 0 commits</title></rect>
<rect x="392" y="201" width="18" height="18" rx="2" class="h0"><title>Sat 16:00 — 0 commits</title></rect>
<rect x="413" y="201" width="18" height="18" rx="2" class="h0"><title>Sat 17:00 — 0 commits</title></rect>
<rect x="434" y="201" width="18" height="18" rx="2" class="h0"><title>Sat 18:00 — 0 commits</title></rect>
<rect x="455" y="201" width="18" height="18" rx="2" class="h0"><title>Sat 19:00 — 0 commits</title></rect>
<rect x="476" y="201" width="18" height="18" rx="2" class="h0"><title>Sat 20:00 — 0 commits</title></rect>
<rect x="497" y="201" width="18" height="18" rx="2" class="h0"><title>Sat 21:00 — 0 commits</title></rect>
<rect x="518" y="201" width="18" height="18" rx="2" class="h0"><title>Sat 22:00 — 0 commits</title></rect>
<rect x="539" y="201" width="18" height="18" rx="2" class="h0"><title>Sat 23:00 — 0 commits</title></rect>
<text x="48" y="235" class="day-label" text-anchor="end">Sun</text>
<rect x="56" y="222" width="18" height="18" rx="2" class="h0"><title>Sun 0:00 — 0 commits</title></rect>
<rect x="77" y="222" width="18" height="18" rx="2" class="h0"><title>Sun 1:00 — 0 commits</title></rect>
<rect x="98" y="222" width="18" height="18" rx="2" class="h0"><title>Sun 2:00 — 0 commits</title></rect>
<rect x="119" y="222" width="18" height="18" rx="2" class="h0"><title>Sun 3:00 — 0 commits</title></rect>
<rect x="140" y="222" width="18" height="18" rx="2" class="h0"><title>Sun 4:00 — 0 commits</title></rect>
<rect x="161" y="222" width="18" height="18" rx="2" class="h0"><title>Sun 5:00 — 0 commits</title></rect>
<rect x="182" y="222" width="18" height="18" rx="2" class="h0"><title>Sun 6:00 — 0 commits</title></rect>
<rect x="203" y="222" width="18" height="18" rx="2" class="h0"><title>Sun 7:00 — 0 commits</title></rect>
<rect x="224" y="222" width="18" height="18" rx="2" class="h0"><title>Sun 8:00 — 0 commits</title></rect>
<rect x="245" y="222" width="18" height="18" rx="2" class="h0"><title>Sun 9:00 — 0 commits</title></rect>
<rect x="266" y="222" width="18" height="18" rx="2" class="h0"><title>Sun 10:00 — 0 commits</title></rect>
<rect x="287" y="222" width="18" height="18" rx="2" class="h0"><title>Sun 11:00 — 0 commits</title></rect>
<rect x="308" y="222" width="18" height="18" rx="2" class="h0"><title>Sun 12:00 — 0 commits</title></rect>
<rect x="329" y="222" width="18" height="18" rx="2" class="h0"><title>Sun 13:00 — 0 commits</title></rect>
<rect x="350" y="222" width="18" height="18" rx="2" class="h0"><title>Sun 14:00 — 0 commits</title></rect>
<rect x="371" y="222" width="18" height="18" rx="2" class="h0"><title>Sun 15:00 — 0 commits</title></rect>
<rect x="392" y="222" width="18" height="18" rx="2" class="h0"><title>Sun 16:00 — 0 commits</title></rect>
<rect x="413" y="222" width="18" height="18" rx="2" class="h0"><title>Sun 17:00 — 0 commits</title></rect>
<rect x="434" y="222" width="18" height="18" rx="2" class="h0"><title>Sun 18:00 — 0 commits</title></rect>
<rect x="455" y="222" width="18" height="18" rx="2" class="h0"><title>Sun 19:00 — 0 commits</title></rect>
<rect x="476" y="222" width="18" height="18" rx="2" class="h0"><title>Sun 20:00 — 0 commits</title></rect>
<rect x="497" y="222" width="18" height="18" rx="2" class="h0"><title>Sun 21:00 — 0 commits</title></rect>
<rect x="518" y="222" width="18" height="18" rx="2" class="h0"><title>Sun 22:00 — 0 commits</title></rect>
<rect x="539" y="222" width="18" height="18" rx="2" class="h0"><title>Sun 23:00 — 0 commits</title></rect>
<text x="24" y="261" class="foot">Less</text>
<rect x="56" y="251" width="12" height="12" rx="2" class="h0"/>
<rect x="72" y="251" width="12" height="12" rx="2" class="h1"/>
<rect x="88" y="251" width="12" height="12" rx="2" class="h2"/>
<rect x="104" y="251" width="12" height="12" rx="2" class="h3"/>
<rect x="120" y="251" width="12" height="12" rx="2" class="h4"/>
<text x="138" y="261" class="foot">More</text>
<text x="557" y="261" class="foot" text-anchor="end">peak: 1 commit in one hour</text>
</svg>