<svg xmlns="http://www.w3.org/2000/svg" width="540" height="416" viewBox="0 0 540 416" font-family="-apple-system, BlinkMacSystemFont, 'Segoe UI', Helvetica, Arial, sans-serif">
<style>
.title{fill:#1f2328;font-size:16px;font-weight:600}
.subtitle{fill:#656d76;font-size:11px}
.month-label{fill:#1f2328;font-size:11px;font-weight:600}
.count{fill:#656d76;font-size:11px;font-weight:600}
.bar-bg{fill:#ebedf0}
.foot{fill:#8b949e;font-size:10px}
.pct{fill:#1a7f37;font-size:11px;font-weight:600}
.b0{fill:#ebedf0}.b1{fill:#9be9a8}.b2{fill:#40c463}.b3{fill:#30a14e}.b4{fill:#216e39}
@media (prefers-color-scheme: dark){
.title{fill:#e6edf3}.subtitle{fill:#8b949e}.month-label{fill:#e6edf3}.count{fill:#8b949e}
.bar-bg{fill:#21262d}.foot{fill:#6e7681}.pct{fill:#39d353}
.b0{fill:#21262d}.b1{fill:#0e4429}.b2{fill:#006d32}.b3{fill:#26a641}.b4{fill:#39d353}}
</style>
<text x="24" y="38" class="title">📈 monthly grind chart</text>
<text x="24" y="56" class="subtitle">144 W's spread across the year · the longer the bar, the harder i went</text>
<text x="52" y="94" class="month-label" text-anchor="end">Jan</text>
<rect x="60" y="84" width="400" height="12" rx="3" class="bar-bg"/>
<rect x="60" y="84" width="400" height="12" rx="3" class="b4"><title>Jan: 74 contributions</title></rect>
<text x="516" y="94" class="count" text-anchor="end">74</text>
<text x="52" y="118" class="month-label" text-anchor="end">Feb</text>
<rect x="60" y="108" width="400" height="12" rx="3" class="bar-bg"/>
<rect x="60" y="108" width="59.45945945945946" height="12" rx="3" class="b1"><title>Feb: 11 contributions</title></rect>
<text x="516" y="118" class="count" text-anchor="end">11</text>
<text x="52" y="142" class="month-label" text-anchor="end">Mar</text>
<rect x="60" y="132" width="400" height="12" rx="3" class="bar-bg"/>
<rect x="60" y="132" width="10.81081081081081" height="12" rx="3" class="b1"><title>Mar: 2 contributions</title></rect>
<text x="516" y="142" class="count" text-anchor="end">2</text>
<text x="52" y="166" class="month-label" text-anchor="end">Apr</text>
<rect x="60" y="156" width="400" height="12" rx="3" class="bar-bg"/>
<rect x="60" y="156" width="16.216216216216218" height="12" rx="3" class="b1"><title>Apr: 3 contributions</title></rect>
<text x="516" y="166" class="count" text-anchor="end">3</text>
<text x="52" y="190" class="month-label" text-anchor="end">May</text>
<rect x="60" y="180" width="400" height="12" rx="3" class="bar-bg"/>
<rect x="60" y="180" width="291.8918918918919" height="12" rx="3" class="b3"><title>May: 54 contributions</title></rect>
<text x="516" y="190" class="count" text-anchor="end">54</text>
<text x="52" y="214" class="month-label" text-anchor="end">Jun</text>
<rect x="60" y="204" width="400" height="12" rx="3" class="bar-bg"/>
<text x="516" y="214" class="count" text-anchor="end"></text>
<text x="52" y="238" class="month-label" text-anchor="end">Jul</text>
<rect x="60" y="228" width="400" height="12" rx="3" class="bar-bg"/>
<text x="516" y="238" class="count" text-anchor="end"></text>
<text x="52" y="262" class="month-label" text-anchor="end">Aug</text>
<rect x="60" y="252" width="400" height="12" rx="3" class="bar-bg"/>
<text x="516" y="262" class="count" text-anchor="end"></text>
<text x="52" y="286" class="month-label" text-anchor="end">Sep</text>
<rect x="60" y="276" width="400" height="12" rx="3" class="bar-bg"/>
<text x="516" y="286" class="count" text-anchor="end"></text>
<text x="52" y="310" class="month-label" text-anchor="end">Oct</text>
<rect x="60" y="300" width="400" height="12" rx="3" class="bar-bg"/>
<text x="516" y="310" class="count" text-anchor="end"></text>
<text x="52" y="334" class="month-label" text-anchor="end">Nov</text>
<rect x="60" y="324" width="400" height="12" rx="3" class="bar-bg"/>
<text x="516" y="334" class="count" text-anchor="end"></text>
<text x="52" y="358" class="month-label" text-anchor="end">Dec</text>
<rect x="60" y="348" width="400" height="12" rx="3" class="bar-bg"/>
<text x="516" y="358" class="count" text-anchor="end"></text>
<text x="24" y="380" class="foot">🏆 cooked the hardest in <tspan class="pct">Jan</tspan> · 74 contributions</text>
</svg>